<?xml version="1.0" encoding="utf-8"?>
<!-- Generator: Adobe Illustrator 27.5.0, SVG Export Plug-In . SVG Version: 6.00 Build 0)  -->
<svg version="1.1" xmlns="http://www.w3.org/2000/svg" xmlns:xlink="http://www.w3.org/1999/xlink" x="0px" y="0px"
	 viewBox="0 0 500 500" style="enable-background:new 0 0 500 500;" xml:space="preserve">
<g id="BACKGROUND">
</g>
<g id="OBJECTS">
	<g id="XMLID_2_">
		<rect id="XMLID_1590_" x="235.791" y="60.012" style="fill:#D5F2EB;" width="182.781" height="121.707"/>
		
			<line id="XMLID_1586_" style="fill:none;stroke:#FFFFFF;stroke-width:1.947;stroke-miterlimit:10;" x1="325.181" y1="60.012" x2="325.181" y2="181.719"/>
		
			<line id="XMLID_1585_" style="fill:none;stroke:#FFFFFF;stroke-width:1.947;stroke-miterlimit:10;" x1="235.791" y1="120.866" x2="418.572" y2="120.866"/>
	</g>
	<g id="XMLID_1728_">
		
			<ellipse id="XMLID_1536_" transform="matrix(0.2146 -0.9767 0.9767 0.2146 47.6614 225.7338)" style="fill:#FFDC75;" cx="164.187" cy="83.232" rx="21.215" ry="21.215"/>
		<rect id="XMLID_1535_" x="156.356" y="58.518" style="fill:#69C9BA;" width="15.662" height="5.267"/>
		
			<line id="XMLID_1724_" style="fill:none;stroke:#69C9BA;stroke-width:0.9541;stroke-miterlimit:10;" x1="164.187" y1="58.518" x2="164.187" y2="0"/>
	</g>
	<g id="XMLID_1727_">
		
			<ellipse id="XMLID_1726_" transform="matrix(0.2277 -0.9737 0.9737 0.2277 -3.2808 162.3277)" style="fill:#FFDC75;" cx="100.691" cy="83.232" rx="21.215" ry="21.215"/>
		<rect id="XMLID_1725_" x="92.86" y="58.518" style="fill:#69C9BA;" width="15.662" height="5.267"/>
		
			<line id="XMLID_1723_" style="fill:none;stroke:#69C9BA;stroke-width:0.9541;stroke-miterlimit:10;" x1="100.691" y1="58.518" x2="100.691" y2="0"/>
	</g>
	<g id="XMLID_1_">
		<path id="XMLID_5_" style="fill:#F7C5B4;" d="M138.007,220.458c4.191,10.892,8.067,22.119,15.369,31.224
			c1.968,2.454,4.102,4.878,6.863,6.386c1.878,1.025,3.971,1.583,6.055,2.067c6.349,1.476,12.836,2.354,19.349,2.619h3.146
			c23.006,2.439,23.62-5.072,1.631-6.432c0.342,0.175-3.906-1.485-6.393-2.474c-4.832-1.92-14.166-3.706-17.946-7.495
			c-1.208-1.211-9.982-21.757-12.518-28.721L138.007,220.458z"/>
		<path id="XMLID_1447_" style="fill:#20A299;" d="M157.682,316.751c4.842,1.063,9.652,2.039,10.12,7.067
			c1.416,15.243-31.43,14.554-40.012,13.988c-8.073-0.533-16.136-1.221-24.184-2.064c-10.247-1.074-21.699-3.116-27.627-11.707
			c-3.241-4.697-4.221-10.613-4.691-16.336v-82.202c0,0-2.309-36.034,16.364-43.76c17.249-7.138,36.903-4.568,41.41,49.965
			c4.507,54.533,5.913,79.658,5.913,79.658L157.682,316.751z"/>
		<path id="XMLID_1460_" style="fill:none;stroke:#69C9BA;stroke-width:1.1309;stroke-miterlimit:10;" d="M86.459,192.182
			c-5.427,14.621-4.19,30.779-4.203,46.413c-0.015,17.414,0.777,62.985,2.541,74.987c2.075,14.118,74.55,18.408,72.812,7.183"/>
		<g id="XMLID_1472_">
			<path id="XMLID_36_" style="fill:#69C9BA;" d="M86.568,312.503c0,0,0.419-0.501,1.137-1.117c0.715-0.623,1.741-1.358,2.817-2.008
				c1.086-0.632,2.207-1.197,3.081-1.543c0.868-0.359,1.468-0.541,1.468-0.541c0.187-0.057,0.386,0.048,0.443,0.235
				c0.049,0.16-0.022,0.328-0.16,0.41c0,0-0.534,0.313-1.338,0.756c-0.401,0.223-0.868,0.482-1.369,0.76
				c-0.502,0.274-1.028,0.582-1.552,0.892c-0.53,0.299-1.051,0.613-1.531,0.92c-0.48,0.305-0.936,0.581-1.31,0.84
				c-0.762,0.505-1.238,0.86-1.238,0.86l-0.005,0.004c-0.144,0.107-0.347,0.078-0.454-0.066
				C86.465,312.783,86.474,312.616,86.568,312.503z"/>
		</g>
		<path id="XMLID_1461_" style="fill:#3C3C3B;" d="M138.007,147.383c-0.262,2.93,0.176,5.522,1.563,7.719
			c1.388,2.197,3.16,4.297,3.549,6.867c0.702,4.643-3.341,9.377-1.659,13.762c0.928,2.421,3.348,3.903,4.876,5.998
			c2.627,3.604,2.105,9.137-1.149,12.186c-1.38,1.293-3.122,2.131-4.892,2.797c-3.552,1.337-7.393,2.057-11.163,1.615
			c-3.77-0.442-7.463-2.118-9.949-4.986c-1.837-2.119-2.946-4.779-3.684-7.484c-1.847-6.764-1.528-13.918-0.879-20.9
			c0.508-5.468,1.414-11.355,5.305-15.23c2.756-2.745,6.687-4.065,10.568-4.331c2.747-0.189,5.344-0.162,7.301,1.775
			L138.007,147.383z"/>
		<path id="XMLID_1489_" style="fill:#BD5A69;" d="M122.851,186.618c12.073,0.546,24.29,4.531,32.03,31.014l-17.095,4.167
			c-5.444,27.363,7.871,42.779,7.871,42.779c-17.125,6.711-31.141,10.286-49.53,10.664c-18.846-83.563,2.478-83.333,10.326-86.714
			L122.851,186.618z"/>
		<path id="XMLID_1533_" style="fill:#FF8189;" d="M96.127,275.242c-3.194,9-0.327,26.984,4.576,32.374
			c0,0,6.526,18.6,84.291,11.152c-1.276,33.376,1.681,78.008,4.254,111.309l9.178,1.116c6.289-35.995,13.632-74.819,16.691-111.231
			c0.445-5.294,0.631-10.609,0.557-15.921c-0.038-2.766-0.154-5.574-1.014-8.204c-2.194-6.712-8.768-11-15.334-13.596
			c-7.763-3.069-16.051-4.527-24.273-5.966c-9.579-1.677-29.261-6.485-38.84-8.162L96.127,275.242z"/>
		<path id="XMLID_1511_" style="fill:#FF8189;" d="M145.657,264.578c19.661,1.598,39.24,4.188,58.64,7.756
			c4.896,0.901,9.943,1.931,14.014,4.797c8.24,5.802,10.038,17.059,11.138,27.077c3.731,33.982,7.463,76.781,11.194,110.762
			l-8.664,3.516c-9.375-18.516-16.615-38.112-21.532-58.276l-17.297-59.634l-59.804-31.466L145.657,264.578z"/>
		<g id="XMLID_1657_">
			<path id="XMLID_34_" style="fill:#AC3F54;" d="M137.743,222.073c0,0-0.257-0.462-0.506-1.166
				c-0.258-0.705-0.52-1.652-0.713-2.613c-0.185-0.962-0.302-1.938-0.329-2.688c-0.035-0.747,0.029-1.271,0.029-1.271
				s0.301,0.433,0.598,1.127c0.306,0.691,0.606,1.643,0.801,2.616c0.187,0.975,0.267,1.97,0.246,2.725
				C137.857,221.559,137.743,222.073,137.743,222.073z"/>
		</g>
		<g id="XMLID_1537_">
			<path id="XMLID_32_" style="fill:#BD5A69;" d="M210.392,360.014c0,0,0.296-2.332,0.815-6.414
				c0.516-4.082,1.172-9.923,1.926-16.932c0.372-3.505,0.746-7.305,1.095-11.328c0.345-4.026,0.695-8.264,0.852-12.655
				c0.082-2.196,0.116-4.43,0.108-6.692c-0.024-2.262-0.016-4.556-0.319-6.799c-0.148-1.113-0.392-2.248-0.744-3.276
				c-0.405-1.125-0.841-2.098-1.447-3.074c-1.179-1.937-2.783-3.619-4.575-5.053c-3.612-2.892-7.901-4.798-12.262-6.261
				c-4.356-1.47-8.782-2.501-13.092-3.36c-4.312-0.859-8.519-1.534-12.484-2.398c-3.958-0.84-7.683-1.693-11.122-2.479
				c-6.87-1.593-12.596-2.921-16.604-3.851c-4.014-0.899-6.326-1.33-6.326-1.33s2.324,0.363,6.365,1.145
				c4.039,0.789,9.806,1.941,16.701,3.42c3.449,0.73,7.187,1.521,11.148,2.294c3.947,0.794,8.173,1.386,12.508,2.245
				c4.337,0.84,8.809,1.855,13.237,3.323c4.396,1.45,8.865,3.386,12.63,6.379c1.864,1.508,3.551,3.29,4.799,5.364
				c0.631,1.016,1.143,2.193,1.517,3.262c0.397,1.179,0.629,2.331,0.783,3.511c0.303,2.351,0.278,4.664,0.291,6.935
				c-0.004,2.275-0.05,4.523-0.144,6.732c-0.163,4.422-0.604,8.674-1.012,12.693c-0.415,4.023-0.851,7.821-1.281,11.323
				c-0.853,7.005-1.754,12.817-2.364,16.886C210.755,357.691,210.392,360.014,210.392,360.014z"/>
		</g>
		<path id="XMLID_1682_" style="fill:#F7C5B4;" d="M108.258,165.234c-0.15-0.762-0.941-1.305-1.718-1.28
			c-0.776,0.025-1.487,0.545-1.857,1.228c-0.37,0.683-0.431,1.503-0.293,2.268c0.189,1.052,0.844,2.347,1.887,2.584
			c-0.074,5.044,0.075,12.825,0.001,17.869c-0.004,0.263-0.005,0.538,0.11,0.775c0.136,0.279,0.411,0.459,0.676,0.621
			c3.835,2.344,8.61,3.786,12.835,2.25c0.794-0.289,1.581-0.702,2.077-1.385c0.414-0.57,0.777-5.445,0.689-8.033l0.283-0.086
			c4.09,0.307,8.449-1.313,10.593-4.784c0.71-1.15,1.154-2.444,1.494-3.752c2.022-7.783,0.478-15.995-1.072-23.886
			c0,0-5.962-13.499-19.119-8.692c-13.157,4.808-8.565,22.661-8.565,22.661"/>
		<g id="XMLID_1679_">
			<path id="XMLID_30_" style="fill:#DA806C;" d="M110.612,175.86c0,0,0.182,0.132,0.502,0.363c0.309,0.236,0.75,0.573,1.279,0.977
				c0.534,0.392,1.14,0.859,1.812,1.314c0.329,0.239,0.69,0.447,1.043,0.678c0.361,0.216,0.729,0.434,1.113,0.617
				c1.504,0.791,3.166,1.27,4.446,1.623c0.64,0.181,1.174,0.332,1.548,0.438c0.378,0.111,0.594,0.174,0.594,0.174
				s-0.905,0.11-2.249-0.003c-0.672-0.05-1.461-0.141-2.294-0.347c-0.414-0.108-0.85-0.212-1.271-0.382
				c-0.426-0.154-0.851-0.341-1.263-0.549c-0.817-0.43-1.588-0.94-2.235-1.498c-0.34-0.259-0.623-0.56-0.91-0.823
				c-0.277-0.272-0.523-0.545-0.751-0.794C111.078,176.629,110.612,175.86,110.612,175.86z"/>
		</g>
		<g id="XMLID_1672_">
			<path id="XMLID_28_" style="fill:#3C3C3B;" d="M134.906,161.004c0,0-1.619-0.115-3.21,0.087
				c-1.592,0.178-3.135,0.669-3.135,0.669c-0.09,0.029-0.185-0.021-0.214-0.11c-0.026-0.081,0.012-0.167,0.086-0.204l0.005-0.002
				c0,0,0.372-0.185,0.962-0.391c0.589-0.21,1.404-0.401,2.232-0.501c0.83-0.088,1.667-0.084,2.287-0.015
				c0.626,0.067,1.023,0.159,1.023,0.159l0.009,0.002c0.084,0.019,0.136,0.103,0.117,0.187
				C135.051,160.959,134.981,161.009,134.906,161.004z"/>
		</g>
		<path id="XMLID_1671_" style="fill:#3C3C3B;" d="M130.974,162.272c0.025,0.753,0.656,1.344,1.41,1.318
			c0.753-0.025,1.344-0.656,1.318-1.41s-0.656-1.343-1.41-1.318C131.539,160.888,130.949,161.519,130.974,162.272z"/>
		<g id="XMLID_1668_">
			<path id="XMLID_26_" style="fill:#3C3C3B;" d="M114.294,162.324c0,0,0.445-0.186,1.165-0.379
				c0.713-0.195,1.694-0.343,2.682-0.365c0.988-0.01,1.974,0.107,2.693,0.282c0.72,0.169,1.18,0.346,1.18,0.346l0.006,0.002
				c0.088,0.034,0.131,0.132,0.097,0.22c-0.031,0.081-0.117,0.124-0.199,0.104c0,0-1.869-0.453-3.77-0.41
				c-1.904,0-3.765,0.499-3.765,0.499c-0.083,0.022-0.168-0.027-0.19-0.11c-0.02-0.076,0.019-0.154,0.09-0.184L114.294,162.324z"/>
		</g>
		<path id="XMLID_1667_" style="fill:#3C3C3B;" d="M119.582,163.198c0.065,0.751-0.492,1.412-1.243,1.477
			c-0.751,0.065-1.412-0.492-1.477-1.242c-0.065-0.751,0.492-1.412,1.242-1.477C118.856,161.891,119.517,162.447,119.582,163.198z"
			/>
		<path id="XMLID_1666_" style="fill:#3C3C3B;" d="M127.378,159.757c-0.321-0.832-0.311-1.793,0.073-2.598
			c0.158,0.262,0.565,0.327,0.796,0.127c0.097-0.084,0.166-0.204,0.284-0.255c0.095-0.041,0.203-0.029,0.306-0.027
			c0.456,0.009,0.885-0.194,1.316-0.342c1.887-0.65,4.107-0.213,5.607,1.103c-0.445,0.403-1.127,0.311-1.728,0.309
			c-2.341-0.007-4.036,1.731-6.376,1.793C127.657,159.866,127.423,159.875,127.378,159.757z"/>
		<path id="XMLID_1665_" style="fill:#3C3C3B;" d="M122.192,160.104c0.153-0.879-0.043-1.82-0.577-2.534
			c-0.104,0.288-0.49,0.431-0.757,0.28c-0.112-0.063-0.203-0.168-0.328-0.195c-0.101-0.022-0.205,0.011-0.306,0.034
			c-0.446,0.098-0.906-0.018-1.358-0.08c-1.977-0.27-4.07,0.59-5.285,2.173c0.515,0.309,1.166,0.085,1.755-0.033
			c2.295-0.462,4.296,0.913,6.603,0.518C121.939,160.265,122.17,160.229,122.192,160.104z"/>
		<g id="XMLID_1661_">
			<path id="XMLID_24_" style="fill:#DA806C;" d="M126.358,162.594c0,0,0.205,0.479,0.441,1.232c0.237,0.75,0.471,1.777,0.612,2.819
				c0.066,0.521,0.105,1.046,0.13,1.537c0.014,0.231,0.029,0.539-0.09,0.814c-0.13,0.3-0.336,0.474-0.537,0.599
				c-0.417,0.246-0.794,0.235-1.025,0.25c-0.232,0-0.365-0.001-0.365-0.001c-0.115,0-0.208-0.093-0.208-0.208
				c0-0.106,0.08-0.194,0.182-0.206l0.006-0.001c0,0,0.125-0.016,0.345-0.043c0.211-0.031,0.511-0.095,0.759-0.266
				c0.123-0.084,0.234-0.217,0.272-0.333c0.051-0.143,0.037-0.32,0.021-0.569c-0.031-0.477-0.086-0.985-0.151-1.49
				c-0.245-2.027-0.756-4.02-0.756-4.02c-0.026-0.102,0.035-0.206,0.137-0.232c0.092-0.024,0.186,0.025,0.223,0.11L126.358,162.594z
				"/>
		</g>
		<g id="XMLID_1658_">
			<path id="XMLID_22_" style="fill:#DA806C;" d="M123.347,171.97c0,0,0.213,0.252,0.551,0.482c0.345,0.253,0.871,0.5,1.432,0.596
				c0.559,0.107,1.135,0.061,1.546-0.05c0.415-0.104,0.675-0.245,0.675-0.245l0.009-0.005c0.097-0.053,0.219-0.016,0.272,0.081
				c0.048,0.09,0.021,0.2-0.059,0.258c0,0-0.068,0.049-0.187,0.135c-0.121,0.082-0.299,0.205-0.538,0.292
				c-0.47,0.204-1.167,0.287-1.837,0.165c-0.668-0.135-1.282-0.469-1.644-0.829c-0.184-0.163-0.327-0.365-0.395-0.47
				c-0.073-0.116-0.115-0.182-0.115-0.182l-0.007-0.011c-0.054-0.086-0.029-0.199,0.056-0.253
				C123.187,171.884,123.289,171.901,123.347,171.97z"/>
		</g>
		<path id="XMLID_1471_" style="fill:#69C9BA;" d="M240.643,414.97c4.448-1.136,8.717-2.045,13.293-2.415
			c1.478-0.12,3.325-0.017,3.939,1.333c0.372,0.818,0.085,1.816-0.484,2.511c-0.569,0.695-1.376,1.147-2.171,1.565
			c-5.512,2.899-11.465,4.957-17.59,6.082c-0.982,0.18-2.055,0.324-2.93-0.158c-0.948-0.522-1.391-1.622-1.764-2.638
			c-0.354-0.966-0.709-1.931-1.063-2.897L240.643,414.97z"/>
		<g id="XMLID_1587_">
			<path id="XMLID_4_" style="fill:#F7C5B4;" d="M114.853,215.249c2.954,6.666,16.199,31.399,17.466,32.507
				c3.963,3.466,13.243,4.596,18.114,6.157c2.508,0.804,6.787,2.15,6.44,2.001c21.009-1.414,19.073,5.781,18.29,6.352
				c-2.87,2.092-20.561,0.152-20.561,0.152l-1.989,0.128c-6.41,0.175-12.836-0.254-19.165-1.278
				c-2.078-0.336-4.169-0.744-6.081-1.625c-2.811-1.295-5.067-3.532-7.163-5.809c-7.775-8.448-15.47-18.532-20.311-28.943
				L114.853,215.249z"/>
		</g>
		<path id="XMLID_1642_" style="fill:#B7425A;" d="M101.036,233.538c-0.007,0.002-1.329-2.695-1.332-2.701
			c-0.084-0.15-5.366-8.746-6.188-14.185c-0.979-6.483-0.88-14.209,6.689-18.085c1.059-0.542,7.861-2.518,12.953,3.627
			c2.178,2.628,8.65,19.024,9.503,22.327c0,0-6.804,3.793-10.741,5.502C108.067,231.695,101.272,233.478,101.036,233.538z"/>
		<path id="XMLID_1473_" style="fill:#3C3C3B;" d="M112.464,129.669c-2.179,0.003-8.462,1.759-10.275,2.967
			c-3.049,2.032-4.958,4.513-6.05,7.183c-0.015,0.026-0.03,0.05-0.045,0.077c-3.27,5.947-3.144,14.541-1.33,20.27
			c0.655,2.067,1.609,3.851,2.026,5.979c1.002,5.115-12.17,13.669-10.867,21.138c0.338,1.94,1.382,3.668,1.899,5.568
			c0.951,3.498-0.606,7.255,0.057,10.819c0.513,2.752,2.455,5.229,5.061,6.252c2.606,1.023,5.791,0.49,7.83-1.429
			c1.027-0.966,1.747-2.221,2.773-3.187c2.391-2.251,5.944-2.563,9.071-3.566c1.178-0.378,2.395-0.93,3.044-1.984
			c0.549-0.893,0.598-2.008,0.474-3.049c-0.256-2.145-1.194-4.204-2.645-5.805c-0.472-0.521-1.008-1.012-1.276-1.662
			c-0.579-1.405,0.273-2.947,0.983-4.29s1.158-3.039,0.424-4.369c-1.184-2.145-2.534-4.199-4.038-6.134
			c-1.065-1.371-1.618-3.917-3.304-4.411c-1.353-0.397-1.943-2.048-1.955-3.552c-0.003-0.395,0.136-0.847,0.325-1.313l0.035,0.014
			c0.439-0.759,1.184-1.08,1.184-1.08c2.053-0.629,2.391,1.132,2.391,1.132c3.701-3.723,0.885-8.715,0.719-10.816
			c-0.179-2.275,0.159-4.613-0.654-6.745l-0.135-0.265c3.535,4.047,10.048,5.092,14.671,2.354c0.526-0.312,1.038-0.67,1.626-0.837
			c1.599-0.456,3.228,0.598,4.408,1.77c1.179,1.172,2.268,2.573,3.849,3.087c2.438,0.792,4.199-1.111,4.882-3.581
			C140.471,139.895,126.944,129.652,112.464,129.669z"/>
		<path id="XMLID_1449_" style="fill:#69C9BA;" d="M199.069,427.519c5.436,2.471,9.607,7.103,13.371,11.738
			c0.527,0.649,1.047,1.344,1.225,2.16c0.178,0.816-0.081,1.786-0.809,2.195c-0.435,0.244-0.959,0.256-1.457,0.236
			c-3.615-0.143-7.029-1.613-10.345-3.06c-3.245-1.416-6.491-2.832-9.736-4.248c-0.845-0.369-1.717-0.756-2.339-1.436
			c-1.692-1.85-0.793-5.94,0-8.533L199.069,427.519z"/>
		<g id="XMLID_1645_">
			<g id="XMLID_1646_">
				<path id="XMLID_20_" style="fill:#20A299;" d="M158.415,333.364c0,0,0.338,1.393,0.93,3.83
					c0.559,2.444,1.415,5.923,2.341,10.119c0.465,2.098,0.968,4.37,1.5,6.773c0.527,2.404,1.109,4.935,1.654,7.564
					c0.554,2.627,1.127,5.342,1.709,8.1c0.283,1.381,0.569,2.773,0.855,4.17l0.215,1.049l0.108,0.525l0.054,0.263l0.027,0.131
					l0.013,0.066l0.007,0.033c-1.735,0.36,3.893-0.756-3.889,0.806c-3.484,0.679,4.738-0.968,3.895-0.779l0.007,0.033l0.013,0.066
					l0.027,0.131l0.054,0.263l0.108,0.526l0.216,1.052c1.124,5.616,2.248,11.233,3.243,16.51c1.024,5.271,1.871,10.213,2.652,14.438
					c0.784,4.224,1.328,7.766,1.76,10.235c0.396,2.476,0.623,3.891,0.623,3.891l-2.443,0.49c0,0-0.337-1.393-0.926-3.83
					c-0.554-2.445-1.418-5.922-2.324-10.122c-0.909-4.199-2.034-9.085-3.122-14.344c-1.117-5.253-2.247-10.868-3.376-16.483
					l-0.207-1.054l-0.103-0.527l-0.052-0.263l-0.026-0.132l-0.013-0.066l-0.006-0.033c-0.85,0.155,7.371-1.499,3.894-0.782
					c-7.78,1.57-2.162,0.411-3.899,0.755l-0.006-0.033l-0.013-0.066l-0.026-0.132l-0.052-0.263l-0.103-0.526l-0.206-1.051
					c-0.274-1.4-0.548-2.794-0.819-4.177c-0.527-2.77-1.046-5.495-1.548-8.133c-0.511-2.636-0.95-5.195-1.392-7.616
					c-0.436-2.423-0.848-4.713-1.228-6.828c-0.764-4.228-1.317-7.768-1.744-10.239c-0.394-2.477-0.62-3.892-0.62-3.892
					L158.415,333.364z"/>
			</g>
			<g id="XMLID_1647_">
				<path id="XMLID_18_" style="fill:#20A299;" d="M80.366,325.216c0,0-0.255,1.561-0.7,4.294
					c-0.468,2.725-1.116,6.632-2.006,11.303c-0.456,2.332-0.949,4.858-1.471,7.529c-0.553,2.665-1.085,5.489-1.738,8.386
					c-0.631,2.903-1.291,5.9-1.993,8.938c-0.719,3.033-1.45,6.113-2.18,9.194c-3.042,12.264-6.084,24.528-8.366,33.726
					c-1.124,4.602-2.06,8.437-2.716,11.121c-0.669,2.683-1.051,4.216-1.051,4.216l-2.439-0.508c0,0,0.273-1.56,0.75-4.29
					c0.506-2.724,1.189-6.626,2.161-11.278c0.975-4.65,2.085-10.084,3.44-15.866c1.328-5.787,2.847-11.93,4.344-18.068
					c1.495-6.134,2.99-12.268,4.392-18.019c1.383-5.753,2.673-11.126,3.729-15.742c1.074-4.616,1.97-8.462,2.596-11.154
					c0.642-2.693,1.01-4.232,1.01-4.232L80.366,325.216z"/>
			</g>
			<g id="XMLID_1648_">
				<path id="XMLID_16_" style="fill:#20A299;" d="M110.695,334.74c0,0-0.015,1.58-0.042,4.346
					c-0.06,2.764-0.087,6.716-0.223,11.453c-0.066,2.369-0.138,4.935-0.214,7.648c-0.082,2.714-0.141,5.577-0.259,8.536
					c-0.201,5.92-0.463,12.232-0.735,18.544c-0.293,6.311-0.587,12.622-0.922,18.535c-0.305,5.915-0.701,11.431-0.984,16.161
					c-0.28,4.73-0.625,8.667-0.815,11.425c-0.226,2.757-0.355,4.332-0.355,4.332l-2.489-0.115c0,0,0.016-1.58,0.045-4.346
					c0.065-2.764,0.083-6.716,0.239-11.452c0.153-4.736,0.266-10.265,0.506-16.183c0.211-5.919,0.499-12.23,0.787-18.542
					c0.31-6.31,0.629-12.62,0.974-18.533c0.154-2.957,0.358-5.814,0.527-8.523c0.174-2.709,0.339-5.271,0.491-7.636
					c0.3-4.729,0.636-8.667,0.831-11.424c0.228-2.756,0.358-4.331,0.358-4.331L110.695,334.74z"/>
			</g>
		</g>
	</g>
	<g id="XMLID_1644_">
		<rect id="XMLID_1458_" x="378.721" y="271.245" style="fill:#A7E6D9;" width="11.826" height="153.656"/>
		<rect id="XMLID_1450_" x="260.229" y="268.053" style="fill:#A7E6D9;" width="11.826" height="153.656"/>
		<rect id="XMLID_1655_" x="120.694" y="272.619" style="fill:#A7E6D9;" width="168.682" height="9.008"/>
		<polygon id="XMLID_1685_" style="fill:#A7E6D9;" points="289.376,272.619 399.764,264.578 399.764,273.102 289.376,281.626 		"/>
		<rect id="XMLID_1683_" x="129.063" y="281.626" style="fill:#A7E6D9;" width="11.826" height="153.029"/>
		<rect id="XMLID_1686_" x="278.738" y="281.071" style="fill:#A7E6D9;" width="11.826" height="158.277"/>
		<polygon id="XMLID_1459_" style="fill:#69C9BA;" points="399.764,264.578 255.703,261.159 120.694,272.619 289.376,272.619 		"/>
	</g>
	<polygon id="XMLID_1534_" style="fill:#92999F;" points="222.083,207.085 204.979,261.885 163.04,262.996 163.202,269.109 
		284.651,269.109 300.229,207.707 	"/>
	<g id="XMLID_1817_">
		<g id="XMLID_1810_">
			<path id="XMLID_1809_" style="fill:#FF8189;" d="M370.932,379.48c5.151-3.885,3.471-13.031-0.709-17.946
				c-1.788-2.102-4.178-3.704-5.596-6.072c-3.493-5.831-0.015-14.259-4.174-19.636c-3.764-4.867-11.223-4.161-16.866-6.614
				c-2.458-1.069-4.615-2.778-7.137-3.688c-2.522-0.909-5.746-0.778-7.403,1.33c-2.586,3.29,0.45,7.852,1.415,11.924
				c1.58,6.663-2.557,14.776,1.894,19.979c3.777,4.414,12.061,4.073,14.089,9.517c0.815,2.189,0.255,4.673,0.876,6.925
				c0.564,2.048,2.066,3.725,3.776,4.984C351.099,380.184,358.632,388.757,370.932,379.48z"/>
			<g id="XMLID_1808_">
				<path id="XMLID_15_" style="fill:#BD5A69;" d="M336.173,331.859c0,0,0.241,0.202,0.692,0.582
					c0.445,0.369,1.126,0.972,1.927,1.739c0.813,0.765,1.75,1.743,2.803,2.881c1.048,1.143,2.169,2.484,3.334,3.989
					c2.372,2.979,4.809,6.684,7.406,10.63c1.291,1.978,2.6,4.061,3.89,6.186c1.308,2.118,2.594,4.299,3.842,6.505
					c1.246,2.207,2.416,4.458,3.542,6.689c0.543,1.126,1.082,2.243,1.615,3.347c0.494,1.123,0.981,2.232,1.461,3.323
					c0.921,2.2,1.738,4.358,2.473,6.419c0.685,2.078,1.344,4.042,1.802,5.9c0.528,1.836,0.847,3.565,1.182,5.079
					c0.264,1.532,0.484,2.867,0.629,3.972c0.249,2.219,0.321,3.489,0.321,3.489l-1.321,0.231c0,0-0.404-1.2-0.99-3.304
					c-0.649-2.092-1.512-5.081-2.679-8.622c-0.577-1.772-1.214-3.687-1.932-5.698c-0.361-1.005-0.732-2.038-1.111-3.093
					c-0.403-1.048-0.815-2.117-1.233-3.206c-0.863-2.168-1.792-4.394-2.757-6.652c-0.984-2.25-2.039-4.513-3.124-6.765
					c-1.093-2.249-2.227-4.48-3.39-6.655c-1.181-2.169-2.38-4.266-3.578-6.295c-1.2-2.036-2.375-3.968-3.569-5.762
					c-1.18-1.798-2.345-3.461-3.471-4.956c-2.274-2.973-4.407-5.249-6.017-6.704c-0.803-0.739-1.428-1.273-1.898-1.647
					c-0.458-0.371-0.703-0.569-0.703-0.569L336.173,331.859z"/>
			</g>
		</g>
		<g id="XMLID_1811_">
			<path id="XMLID_1815_" style="fill:#FF8189;" d="M376.442,374.861c-6.078-2.164-7.214-11.393-4.697-17.335
				c1.076-2.541,2.877-4.785,3.521-7.469c1.587-6.61-4.255-13.609-1.897-19.984c2.134-5.771,9.463-7.331,14.112-11.361
				c2.026-1.756,3.571-4.033,5.705-5.655s5.25-2.462,7.461-0.948c3.453,2.365,1.922,7.626,2.22,11.801
				c0.488,6.83,6.865,13.333,4.175,19.63c-2.282,5.342-10.288,7.497-10.594,13.299c-0.123,2.332,1.156,4.535,1.238,6.869
				c0.075,2.123-0.856,4.173-2.111,5.886C395.576,369.594,390.956,380.029,376.442,374.861z"/>
			<g id="XMLID_1812_">
				<path id="XMLID_13_" style="fill:#BD5A69;" d="M396.471,319.749c0,0-0.174,0.262-0.5,0.753c-0.336,0.498-0.772,1.195-1.317,2.14
					c-1.1,1.871-2.454,4.68-3.734,8.198c-0.627,1.763-1.241,3.699-1.828,5.768c-0.602,2.069-1.145,4.264-1.68,6.566
					c-0.536,2.295-1.052,4.655-1.529,7.077c-0.458,2.423-0.872,4.892-1.241,7.364c-0.361,2.474-0.69,4.949-0.955,7.39
					c-0.245,2.443-0.464,4.846-0.638,7.172c-0.074,1.164-0.146,2.308-0.217,3.428c-0.046,1.12-0.09,2.217-0.134,3.284
					c-0.083,2.133-0.118,4.152-0.137,6.015c-0.053,3.728,0.018,6.839,0.026,9.029c0.071,2.183,0.045,3.449,0.045,3.449l-1.33,0.175
					c0,0-0.311-1.234-0.738-3.425c-0.192-1.097-0.382-2.437-0.59-3.978c-0.133-1.544-0.347-3.289-0.393-5.2
					c-0.119-1.91-0.078-3.981-0.047-6.169c0.084-2.187,0.217-4.491,0.438-6.866c0.131-1.185,0.264-2.389,0.399-3.608
					c0.178-1.213,0.357-2.44,0.539-3.677c0.406-2.466,0.849-4.964,1.377-7.443c0.53-2.478,1.104-4.944,1.718-7.357
					c0.594-2.413,1.22-4.793,1.859-7.067c1.296-4.542,2.512-8.807,3.883-12.36c0.66-1.784,1.329-3.4,1.986-4.804
					c0.663-1.401,1.265-2.614,1.811-3.588c0.535-0.972,1.004-1.752,1.318-2.237c0.317-0.497,0.486-0.763,0.486-0.763
					L396.471,319.749z"/>
			</g>
		</g>
		<g id="XMLID_1813_">
			<path id="XMLID_1820_" style="fill:#FF8189;" d="M399.19,379.607c-4.916-4.178-2.707-13.211,1.752-17.874
				c1.907-1.995,4.387-3.455,5.94-5.736c3.827-5.618,0.845-14.233,5.31-19.359c4.041-4.64,11.447-3.5,17.222-5.621
				c2.517-0.924,4.769-2.505,7.339-3.266c2.57-0.761,5.782-0.442,7.313,1.759c2.39,3.435-0.906,7.813-2.107,11.822
				c-1.965,6.56,1.693,14.9-3.054,19.835c-4.027,4.187-12.278,3.363-14.619,8.68c-0.941,2.137-0.527,4.65-1.277,6.862
				c-0.683,2.011-2.279,3.598-4.06,4.756C418.949,381.465,410.93,389.585,399.19,379.607z"/>
			<g id="XMLID_1814_">
				<path id="XMLID_11_" style="fill:#BD5A69;" d="M437.454,335.173c0,0-0.256,0.183-0.735,0.527
					c-0.491,0.347-1.146,0.844-1.991,1.534c-1.692,1.359-3.954,3.507-6.397,6.342c-1.212,1.426-2.471,3.019-3.754,4.745
					c-1.297,1.722-2.582,3.581-3.899,5.544c-1.314,1.956-2.633,3.98-3.938,6.076c-1.287,2.103-2.549,4.265-3.771,6.446
					c-1.215,2.185-2.399,4.383-3.513,6.572c-1.095,2.198-2.151,4.367-3.139,6.48c-0.481,1.062-0.954,2.106-1.418,3.129
					c-0.44,1.031-0.87,2.041-1.289,3.023c-0.834,1.965-1.582,3.841-2.261,5.576c-1.371,3.467-2.407,6.401-3.177,8.452
					c-0.707,2.067-1.181,3.241-1.181,3.241l-1.305-0.308c0,0,0.147-1.264,0.524-3.464c0.209-1.094,0.506-2.414,0.859-3.928
					c0.423-1.491,0.842-3.199,1.476-5.001c0.565-1.828,1.338-3.75,2.143-5.785c0.854-2.015,1.795-4.122,2.843-6.265
					c0.542-1.061,1.094-2.14,1.652-3.232c0.596-1.071,1.199-2.155,1.807-3.247c1.254-2.162,2.554-4.341,3.926-6.472
					c1.374-2.129,2.785-4.232,4.214-6.27c1.411-2.046,2.84-4.049,4.243-5.949c2.822-3.788,5.471-7.345,8.013-10.181
					c1.25-1.434,2.448-2.708,3.56-3.788c1.117-1.075,2.109-1.996,2.966-2.713c0.845-0.72,1.56-1.282,2.026-1.624
					c0.473-0.353,0.725-0.541,0.725-0.541L437.454,335.173z"/>
			</g>
		</g>
		<polygon id="XMLID_1794_" style="fill:#FFDC75;" points="405.578,455.148 358.838,455.148 351.081,391.657 415.495,391.657 		"/>
		<rect id="XMLID_1816_" x="347.95" y="391.356" style="fill:#E2C02C;" width="70.161" height="8.534"/>
	</g>
</g>
</svg>
